<?xml version="1.0" encoding="UTF-8"?>
<svg id="OBJECTS" xmlns="http://www.w3.org/2000/svg" xmlns:xlink="http://www.w3.org/1999/xlink" version="1.1" viewBox="0 0 400 400">
  <defs>
    <style>
      .cls-1 {
        fill: #fafbfb;
      }

      .cls-1, .cls-2 {
        stroke-width: 0px;
      }

      .cls-2 {
        fill: url(#linear-gradient);
      }
    </style>
    <linearGradient id="linear-gradient" x1="200" y1="67.8" x2="200" y2="250.2" gradientUnits="userSpaceOnUse">
      <stop offset="0" stop-color="#d81b61"/>
      <stop offset="1" stop-color="#9f4f9e"/>
    </linearGradient>
  </defs>
  <g>
    <path class="cls-1" d="M61.5,324h-12.1l-2.7,6.3h-6.3l12.9-30h4.6l12.5,30h-6.3l-2.7-6.3ZM59.8,319.3l-4.3-10.8-4.3,10.8h8.5Z"/>
    <path class="cls-1" d="M82.7,300.3c4.1,0,6.3,1.1,7.6,2.2,2.3,1.9,3,4.5,3,6.7s-1.2,5.5-3.5,7.1c-.8.5-1.8,1-3.3,1.3l9.4,12.6h-7.3l-8-12.1h-.7v12.1h-5.8v-30h8.7ZM79.8,314.1h1.7c1.1,0,5.8-.1,5.8-4.5s-4.6-4.5-5.7-4.5h-1.8v9Z"/>
    <path class="cls-1" d="M109.3,305.4v25h-5.8v-25h-6.7v-5h19.3v5h-6.7Z"/>
    <path class="cls-1" d="M125.5,300.3v30h-5.8v-30h5.8Z"/>
    <path class="cls-1" d="M147.1,307.2c-1.8-2.3-3.8-2.6-4.9-2.6-3.1,0-4.1,2-4.1,3.5s.2,1.4.9,2c.7.7,1.7,1,3.6,1.7,2.3.8,4.5,1.6,6.1,3,1.3,1.2,2.6,3.2,2.6,6.3,0,5.8-4.2,9.9-10.4,9.9s-8.8-3.4-10.3-5.7l3.8-3.6c1.4,2.9,4.2,4,6.3,4s4.6-1.6,4.6-4.1-.4-1.9-1.2-2.7c-1.1-1-2.9-1.6-4.6-2.2-1.6-.5-3.5-1.3-5-2.6-1-.9-2.4-2.5-2.4-5.6,0-4.4,3-8.8,9.6-8.8s5.4.4,8.5,3.5l-3.1,4Z"/>
    <path class="cls-1" d="M165.4,305.4v25h-5.8v-25h-6.7v-5h19.3v5h-6.7Z"/>
    <path class="cls-1" d="M202.2,305.4h-10.1v6.7h9.4v5h-9.4v13.2h-5.8v-30h15.9v5Z"/>
    <path class="cls-1" d="M237.8,315.4c0,9.1-6.6,15.7-16,15.7s-16-6.5-16-15.7,6.6-15.7,16-15.7,16,6.6,16,15.7ZM231.8,315.4c0-6.1-4.1-10.4-10-10.4s-10,4.3-10,10.4,4.1,10.3,10,10.3,10-4.3,10-10.3Z"/>
    <path class="cls-1" d="M251.9,300.3c4.1,0,6.3,1.1,7.6,2.2,2.3,1.9,3,4.5,3,6.7s-1.2,5.5-3.5,7.1c-.8.5-1.8,1-3.3,1.3l9.4,12.6h-7.3l-8-12.1h-.7v12.1h-5.8v-30h8.7ZM249.1,314.1h1.7c1.1,0,5.8-.1,5.8-4.5s-4.6-4.5-5.7-4.5h-1.8v9Z"/>
    <path class="cls-1" d="M295.4,305.4h-10.1v6.7h9.4v5h-9.4v13.2h-5.8v-30h15.9v5Z"/>
    <path class="cls-1" d="M306.3,300.3v18.8c0,2.3.8,3.7,1.4,4.5.9,1,2.4,2.1,4.8,2.1s3.9-1,4.8-2.1c.7-.8,1.4-2.2,1.4-4.5v-18.8h5.8v18.4c0,2.8-.5,5.7-2.2,8-2.2,2.8-5.9,4.3-9.8,4.3s-7.6-1.5-9.8-4.3c-1.8-2.3-2.2-5.2-2.2-8v-18.4h5.8Z"/>
    <path class="cls-1" d="M331.4,330.3v-30h4l18.3,20v-20h5.8v30h-4l-18.3-20.1v20.1h-5.8Z"/>
  </g>
  <path class="cls-2" d="M278.8,113.4l-75.2-43.4c-2.3-1.3-5-1.3-7.3,0l-75.2,43.4c-2.3,1.3-3.7,3.7-3.7,6.3v86.8c0,2.6,1.4,5,3.7,6.3l75.2,43.4c1.1.7,2.4,1,3.7,1s2.5-.3,3.7-1l75.2-43.4c2.3-1.3,3.7-3.7,3.7-6.3v-86.8c0-2.6-1.4-5-3.7-6.3ZM200,84.7l67.9,39.2v40.7h-5.9l-12.1-36.6c-1-3-3.8-5-6.9-5s-6,2-6.9,5l-12.1,36.6h-10.1c-3.2,0-6,2-6.9,5l-6.8,20.6-6.8-20.6c-1-3-3.8-5-6.9-5h-10.1l-12.1-36.6c-1-3-3.8-5-6.9-5s-6,2-6.9,5l-12.1,36.6h-5.9v-40.7l67.9-39.2ZM200,241.4l-67.9-39.2v-23.1h11.2c3.2,0,6-2,6.9-5l6.8-20.6,6.8,20.6c1,3,3.8,5,6.9,5h10.1l12.1,36.6c1,3,3.8,5,6.9,5s6-2,6.9-5l12.1-36.6h10.1c3.2,0,6-2,6.9-5l6.8-20.6,6.8,20.6c1,3,3.8,5,6.9,5h11.2v23.1l-67.9,39.2Z"/>
</svg>