<?xml version="1.0" encoding="iso-8859-1"?>
<!-- Uploaded to: SVG Repo, www.svgrepo.com, Generator: SVG Repo Mixer Tools -->
<!DOCTYPE svg PUBLIC "-//W3C//DTD SVG 1.1//EN" "http://www.w3.org/Graphics/SVG/1.1/DTD/svg11.dtd">
<svg fill="#000000" version="1.1" id="Capa_1" xmlns="http://www.w3.org/2000/svg" xmlns:xlink="http://www.w3.org/1999/xlink" 
	 width="800px" height="800px" viewBox="0 0 45.923 45.923"
	 xml:space="preserve">
<g>
	<path d="M45.494,44.443c-0.004,0.387-0.025,0.611-0.025,0.611l-0.838,0.838c0,0-0.225,0.021-0.612,0.025
		c-0.2,0.01-0.43,0.002-0.696-0.01c-0.266-0.013-0.584-0.013-0.898-0.057c-0.65-0.064-1.438-0.146-2.242-0.338
		c-0.816-0.18-1.699-0.421-2.582-0.764c-0.891-0.336-1.802-0.752-2.688-1.271c-0.891-0.515-1.764-1.123-2.502-1.917
		c-0.748-0.784-1.348-1.77-1.928-2.797c-0.58-1.03-1.177-2.067-1.861-3.019c-0.961-1.329-1.891-2.664-2.787-3.988
		c2.266-1.362,4.222-3.184,5.721-5.352c1.252,0.853,2.512,1.731,3.768,2.64c0.951,0.684,1.988,1.28,3.019,1.86
		c1.028,0.582,2.012,1.181,2.797,1.928c0.794,0.738,1.401,1.611,1.917,2.502c0.52,0.886,0.936,1.797,1.271,2.688
		c0.343,0.883,0.584,1.766,0.764,2.582c0.191,0.805,0.273,1.592,0.338,2.242c0.044,0.314,0.044,0.633,0.057,0.898
		C45.496,44.013,45.504,44.24,45.494,44.443z M24.429,29.652c-2.369,1.397-5.122,2.213-8.072,2.213
		c-8.8,0-15.933-7.133-15.933-15.933C0.424,7.134,7.558,0,16.357,0s15.932,7.134,15.932,15.933c0,3.369-1.051,6.49-2.836,9.063
		C28.139,26.891,26.421,28.478,24.429,29.652z M20.571,23.427c1.032-0.581,1.927-1.371,2.638-2.31
		c1.093-1.442,1.749-3.234,1.749-5.183c0-4.75-3.85-8.601-8.6-8.601s-8.601,3.851-8.601,8.601s3.851,8.602,8.601,8.602
		C17.889,24.533,19.325,24.129,20.571,23.427z"/>
</g>
</svg>